Seven2.ufo
<glyph name="comma" format="1">
  <advance width="164"/>
  <unicode hex="002C"/>
  <outline>
    <contour>
      <point x="51" y="121" type="line"/>
      <point x="113" y="121" type="line"/>
      <point x="113" y="-78" type="line"/>
      <point x="51" y="-78" type="line"/>
    </contour>
  </outline>
</glyph>
<glyph name="three" format="1">
  <advance width="684"/>
  <unicode hex="0033"/>
  <outline>
    <contour>
      <point x="81" y="786" type="line"/>
      <point x="92" y="806"/>
      <point x="106" y="824"/>
      <point x="124" y="839" type="curve" smooth="yes"/>
      <point x="184" y="889"/>
      <point x="264" y="900"/>
      <point x="342" y="900" type="curve" smooth="yes"/>
      <point x="420" y="900"/>
      <point x="500" y="889"/>
      <point x="560" y="839" type="curve" smooth="yes"/>
      <point x="612" y="795"/>
      <point x="632" y="725"/>
      <point x="632" y="656" type="curve" smooth="yes"/>
      <point x="632" y="587"/>
      <point x="612" y="517"/>
      <point x="560" y="473" type="curve" smooth="yes"/>
      <point x="543" y="459"/>
      <point x="525" y="448"/>
      <point x="506" y="440" type="curve"/>
      <point x="525" y="432"/>
      <point x="543" y="421"/>
      <point x="560" y="407" type="curve" smooth="yes"/>
      <point x="612" y="363"/>
      <point x="632" y="293"/>
      <point x="632" y="224" type="curve" smooth="yes"/>
      <point x="632" y="155"/>
      <point x="612" y="85"/>
      <point x="560" y="41" type="curve" smooth="yes"/>
      <point x="500" y="-9"/>
      <point x="420" y="-20"/>
      <point x="342" y="-20" type="curve" smooth="yes"/>
      <point x="264" y="-20"/>
      <point x="184" y="-9"/>
      <point x="124" y="41" type="curve" smooth="yes"/>
      <point x="106" y="56"/>
      <point x="92" y="74"/>
      <point x="81" y="94" type="curve"/>
      <point x="136" y="124" type="line"/>
      <point x="145" y="109"/>
      <point x="156" y="95"/>
      <point x="170" y="83" type="curve" smooth="yes"/>
      <point x="217" y="44"/>
      <point x="281" y="36"/>
      <point x="342" y="36" type="curve" smooth="yes"/>
      <point x="403" y="36"/>
      <point x="466" y="44"/>
      <point x="513" y="83" type="curve" smooth="yes"/>
      <point x="554" y="117"/>
      <point x="571" y="171"/>
      <point x="571" y="224" type="curve" smooth="yes"/>
      <point x="571" y="277"/>
      <point x="554" y="331"/>
      <point x="513" y="365" type="curve" smooth="yes"/>
      <point x="466" y="404"/>
      <point x="403" y="412"/>
      <point x="342" y="412" type="curve"/>
      <point x="342" y="468" type="line"/>
      <point x="403" y="468"/>
      <point x="466" y="476"/>
      <point x="513" y="515" type="curve" smooth="yes"/>
      <point x="554" y="549"/>
      <point x="571" y="603"/>
      <point x="571" y="656" type="curve" smooth="yes"/>
      <point x="571" y="709"/>
      <point x="554" y="763"/>
      <point x="513" y="797" type="curve" smooth="yes"/>
      <point x="466" y="836"/>
      <point x="403" y="844"/>
      <point x="342" y="844" type="curve" smooth="yes"/>
      <point x="281" y="844"/>
      <point x="217" y="836"/>
      <point x="170" y="797" type="curve" smooth="yes"/>
      <point x="157" y="786"/>
      <point x="147" y="774"/>
      <point x="138" y="760" type="curve"/>
    </contour>
  </outline>
</glyph>
<glyph name="four" format="1">
  <advance width="684"/>
  <unicode hex="0034"/>
  <outline>
    <contour>
      <point x="414" y="0" type="line"/>
      <point x="414" y="324" type="line"/>
      <point x="54" y="324" type="line"/>
      <point x="54" y="424" type="line"/>
      <point x="375" y="880" type="line"/>
      <point x="475" y="880" type="line"/>
      <point x="475" y="380" type="line"/>
      <point x="629" y="380" type="line"/>
      <point x="629" y="324" type="line"/>
      <point x="475" y="324" type="line"/>
      <point x="475" y="0" type="line"/>
    </contour>
    <contour>
      <point x="414" y="380" type="line"/>
      <point x="414" y="839" type="line"/>
      <point x="413" y="839"/>
      <point x="90" y="380"/>
      <point x="90" y="380" type="curve"/>
    </contour>
  </outline>
</glyph>
<glyph name="six" format="1">
  <advance width="684"/>
  <unicode hex="0036"/>
  <outline>
    <contour>
      <point x="113" y="472" type="line"/>
      <point x="167" y="535"/>
      <point x="255" y="556"/>
      <point x="342" y="556" type="curve" smooth="yes"/>
      <point x="421" y="556"/>
      <point x="503" y="540"/>
      <point x="560" y="484" type="curve" smooth="yes"/>
      <point x="616" y="428"/>
      <point x="632" y="347"/>
      <point x="632" y="268" type="curve" smooth="yes"/>
      <point x="632" y="189"/>
      <point x="616" y="108"/>
      <point x="560" y="52" type="curve" smooth="yes"/>
      <point x="503" y="-4"/>
      <point x="421" y="-20"/>
      <point x="342" y="-20" type="curve" smooth="yes"/>
      <point x="262" y="-20"/>
      <point x="180" y="-4"/>
      <point x="124" y="52" type="curve" smooth="yes"/>
      <point x="68" y="108"/>
      <point x="51" y="189"/>
      <point x="51" y="268" type="curve" smooth="yes"/>
      <point x="51" y="556" type="line" smooth="yes"/>
      <point x="51" y="648"/>
      <point x="65" y="744"/>
      <point x="124" y="814" type="curve" smooth="yes"/>
      <point x="177" y="877"/>
      <point x="260" y="900"/>
      <point x="342" y="900" type="curve" smooth="yes"/>
      <point x="424" y="900"/>
      <point x="507" y="877"/>
      <point x="560" y="814" type="curve" smooth="yes"/>
      <point x="564" y="809"/>
      <point x="567" y="804"/>
      <point x="571" y="799" type="curve"/>
      <point x="520" y="763" type="line"/>
      <point x="483" y="819"/>
      <point x="411" y="844"/>
      <point x="342" y="844" type="curve" smooth="yes"/>
      <point x="276" y="844"/>
      <point x="211" y="823"/>
      <point x="170" y="772" type="curve" smooth="yes"/>
      <point x="123" y="712"/>
      <point x="113" y="633"/>
      <point x="113" y="556" type="curve" smooth="yes"/>
    </contour>
    <contour>
      <point x="113" y="268" type="curve" smooth="yes"/>
      <point x="113" y="204"/>
      <point x="126" y="139"/>
      <point x="170" y="94" type="curve" smooth="yes"/>
      <point x="214" y="49"/>
      <point x="279" y="36"/>
      <point x="342" y="36" type="curve" smooth="yes"/>
      <point x="405" y="36"/>
      <point x="469" y="49"/>
      <point x="513" y="94" type="curve" smooth="yes"/>
      <point x="558" y="139"/>
      <point x="571" y="204"/>
      <point x="571" y="268" type="curve" smooth="yes"/>
      <point x="571" y="332"/>
      <point x="558" y="397"/>
      <point x="513" y="442" type="curve" smooth="yes"/>
      <point x="469" y="487"/>
      <point x="405" y="500"/>
      <point x="342" y="500" type="curve" smooth="yes"/>
      <point x="279" y="500"/>
      <point x="214" y="487"/>
      <point x="170" y="442" type="curve" smooth="yes"/>
      <point x="126" y="397"/>
      <point x="113" y="332"/>
    </contour>
  </outline>
</glyph>
<glyph name="seven" format="1">
  <advance width="610"/>
  <unicode hex="0037"/>
  <outline>
    <contour>
      <point x="51" y="824" type="line"/>
      <point x="51" y="880" type="line"/>
      <point x="559" y="880" type="line"/>
      <point x="559" y="780" type="line"/>
      <point x="120" y="0" type="line"/>
      <point x="51" y="0" type="line"/>
      <point x="515" y="824" type="line"/>
    </contour>
  </outline>
</glyph>
<glyph name="eight" format="1">
  <advance width="684"/>
  <unicode hex="0038"/>
  <outline>
    <contour>
      <point x="342" y="844" type="curve" smooth="yes"/>
      <point x="281" y="844"/>
      <point x="218" y="837"/>
      <point x="170" y="800" type="curve" smooth="yes"/>
      <point x="130" y="769"/>
      <point x="113" y="718"/>
      <point x="113" y="667" type="curve" smooth="yes"/>
      <point x="113" y="616"/>
      <point x="130" y="565"/>
      <point x="170" y="534" type="curve" smooth="yes"/>
      <point x="218" y="497"/>
      <point x="281" y="490"/>
      <point x="342" y="490" type="curve" smooth="yes"/>
      <point x="403" y="490"/>
      <point x="465" y="497"/>
      <point x="513" y="534" type="curve" smooth="yes"/>
      <point x="553" y="565"/>
      <point x="571" y="616"/>
      <point x="571" y="667" type="curve" smooth="yes"/>
      <point x="571" y="718"/>
      <point x="553" y="769"/>
      <point x="513" y="800" type="curve" smooth="yes"/>
      <point x="465" y="837"/>
      <point x="403" y="844"/>
    </contour>
    <contour>
      <point x="342" y="900" type="curve" smooth="yes"/>
      <point x="419" y="900"/>
      <point x="499" y="890"/>
      <point x="560" y="842" type="curve"/>
      <point x="611" y="800"/>
      <point x="632" y="734"/>
      <point x="632" y="667" type="curve" smooth="yes"/>
      <point x="632" y="600"/>
      <point x="611" y="534"/>
      <point x="560" y="492" type="curve" smooth="yes"/>
      <point x="543" y="479"/>
      <point x="525" y="469"/>
      <point x="506" y="461" type="curve"/>
      <point x="525" y="452"/>
      <point x="544" y="440"/>
      <point x="560" y="426" type="curve" smooth="yes"/>
      <point x="613" y="379"/>
      <point x="632" y="307"/>
      <point x="632" y="235" type="curve" smooth="yes"/>
      <point x="632" y="163"/>
      <point x="613" y="91"/>
      <point x="560" y="44" type="curve" smooth="yes"/>
      <point x="501" y="-8"/>
      <point x="420" y="-20"/>
      <point x="342" y="-20" type="curve" smooth="yes"/>
      <point x="263" y="-20"/>
      <point x="183" y="-8"/>
      <point x="124" y="44" type="curve" smooth="yes"/>
      <point x="70" y="91"/>
      <point x="51" y="163"/>
      <point x="51" y="235" type="curve" smooth="yes"/>
      <point x="51" y="307"/>
      <point x="70" y="379"/>
      <point x="124" y="426" type="curve" smooth="yes"/>
      <point x="140" y="440"/>
      <point x="158" y="452"/>
      <point x="177" y="461" type="curve"/>
      <point x="158" y="469"/>
      <point x="140" y="479"/>
      <point x="124" y="492" type="curve" smooth="yes"/>
      <point x="72" y="534"/>
      <point x="51" y="600"/>
      <point x="51" y="667" type="curve" smooth="yes"/>
      <point x="51" y="734"/>
      <point x="72" y="800"/>
      <point x="124" y="842" type="curve" smooth="yes"/>
      <point x="184" y="890"/>
      <point x="264" y="900"/>
    </contour>
    <contour>
      <point x="342" y="434" type="curve" smooth="yes"/>
      <point x="280" y="434"/>
      <point x="217" y="425"/>
      <point x="170" y="384" type="curve" smooth="yes"/>
      <point x="128" y="348"/>
      <point x="113" y="291"/>
      <point x="113" y="235" type="curve" smooth="yes"/>
      <point x="113" y="179"/>
      <point x="128" y="122"/>
      <point x="170" y="86" type="curve" smooth="yes"/>
      <point x="217" y="45"/>
      <point x="280" y="36"/>
      <point x="342" y="36" type="curve" smooth="yes"/>
      <point x="403" y="36"/>
      <point x="467" y="45"/>
      <point x="513" y="86" type="curve"/>
      <point x="555" y="122"/>
      <point x="571" y="179"/>
      <point x="571" y="235" type="curve" smooth="yes"/>
      <point x="571" y="291"/>
      <point x="555" y="348"/>
      <point x="513" y="384" type="curve"/>
      <point x="467" y="425"/>
      <point x="403" y="434"/>
    </contour>
  </outline>
</glyph>
<glyph name="nine" format="1">
  <advance width="684"/>
  <unicode hex="0039"/>
  <outline>
    <contour>
      <point x="163" y="117" type="line"/>
      <point x="201" y="61"/>
      <point x="273" y="36"/>
      <point x="342" y="36" type="curve" smooth="yes"/>
      <point x="407" y="36"/>
      <point x="473" y="57"/>
      <point x="513" y="108" type="curve" smooth="yes"/>
      <point x="561" y="168"/>
      <point x="571" y="247"/>
      <point x="571" y="324" type="curve" smooth="yes"/>
      <point x="571" y="408" type="line"/>
      <point x="517" y="345"/>
      <point x="427" y="324"/>
      <point x="342" y="324" type="curve" smooth="yes"/>
      <point x="262" y="324"/>
      <point x="180" y="340"/>
      <point x="124" y="396" type="curve" smooth="yes"/>
      <point x="68" y="452"/>
      <point x="51" y="533"/>
      <point x="51" y="612" type="curve" smooth="yes"/>
      <point x="51" y="691"/>
      <point x="68" y="772"/>
      <point x="124" y="828" type="curve" smooth="yes"/>
      <point x="180" y="884"/>
      <point x="262" y="900"/>
      <point x="342" y="900" type="curve" smooth="yes"/>
      <point x="421" y="900"/>
      <point x="503" y="884"/>
      <point x="560" y="828" type="curve" smooth="yes"/>
      <point x="616" y="772"/>
      <point x="632" y="691"/>
      <point x="632" y="612" type="curve" smooth="yes"/>
      <point x="632" y="324" type="line" smooth="yes"/>
      <point x="632" y="232"/>
      <point x="619" y="136"/>
      <point x="560" y="66" type="curve" smooth="yes"/>
      <point x="507" y="3"/>
      <point x="424" y="-20"/>
      <point x="342" y="-20" type="curve" smooth="yes"/>
      <point x="257" y="-20"/>
      <point x="157" y="8"/>
      <point x="113" y="81" type="curve"/>
    </contour>
    <contour>
      <point x="571" y="612" type="curve" smooth="yes"/>
      <point x="571" y="676"/>
      <point x="558" y="741"/>
      <point x="513" y="786" type="curve" smooth="yes"/>
      <point x="469" y="831"/>
      <point x="405" y="844"/>
      <point x="342" y="844" type="curve" smooth="yes"/>
      <point x="279" y="844"/>
      <point x="214" y="831"/>
      <point x="170" y="786" type="curve" smooth="yes"/>
      <point x="126" y="741"/>
      <point x="113" y="676"/>
      <point x="113" y="612" type="curve" smooth="yes"/>
      <point x="113" y="548"/>
      <point x="126" y="483"/>
      <point x="170" y="438" type="curve" smooth="yes"/>
      <point x="214" y="393"/>
      <point x="279" y="380"/>
      <point x="342" y="380" type="curve" smooth="yes"/>
      <point x="405" y="380"/>
      <point x="469" y="393"/>
      <point x="513" y="438" type="curve" smooth="yes"/>
      <point x="558" y="483"/>
      <point x="571" y="548"/>
    </contour>
  </outline>
</glyph>
<glyph name="semicolon" format="1">
  <advance width="164"/>
  <unicode hex="003B"/>
  <outline>
    <contour>
      <point x="35" y="604" type="curve" smooth="yes"/>
      <point x="35" y="633"/>
      <point x="53" y="651"/>
      <point x="82" y="651" type="curve" smooth="yes"/>
      <point x="111" y="651"/>
      <point x="129" y="633"/>
      <point x="129" y="604" type="curve" smooth="yes"/>
      <point x="129" y="575"/>
      <point x="111" y="557"/>
      <point x="82" y="557" type="curve" smooth="yes"/>
      <point x="53" y="557"/>
      <point x="35" y="575"/>
    </contour>
    <contour>
      <point x="51" y="121" type="line"/>
      <point x="113" y="121" type="line"/>
      <point x="113" y="-78" type="line"/>
      <point x="51" y="-78" type="line"/>
    </contour>
  </outline>
</glyph>
<glyph name="A" format="1">
  <advance width="820"/>
  <unicode hex="0041"/>
  <outline>
    <contour>
      <point x="225" y="387" type="line"/>
      <point x="591" y="387" type="line"/>
      <point x="591" y="336" type="line"/>
      <point x="225" y="336" type="line"/>
    </contour>
    <contour>
      <point x="407" y="827" type="line"/>
      <point x="105" y="0" type="line"/>
      <point x="46" y="0" type="line"/>
      <point x="366" y="880" type="line"/>
      <point x="446" y="880" type="line"/>
      <point x="774" y="0" type="line"/>
      <point x="710" y="0" type="line"/>
    </contour>
  </outline>
</glyph>
<glyph name="F" format="1">
  <advance width="715"/>
  <unicode hex="0046"/>
  <outline>
    <contour>
      <point x="82" y="0" type="line"/>
      <point x="82" y="880" type="line"/>
      <point x="663" y="880" type="line"/>
      <point x="663" y="824" type="line"/>
      <point x="144" y="824" type="line"/>
      <point x="144" y="486" type="line"/>
      <point x="632" y="486" type="line"/>
      <point x="632" y="430" type="line"/>
      <point x="144" y="430" type="line"/>
      <point x="144" y="0" type="line"/>
    </contour>
  </outline>
</glyph>
<glyph name="G" format="1">
  <advance width="904"/>
  <unicode hex="0047"/>
  <outline>
    <contour>
      <point x="758" y="710" type="line"/>
      <point x="705" y="801"/>
      <point x="588" y="844"/>
      <point x="476" y="844" type="curve" smooth="yes"/>
      <point x="241.848" y="844"/>
      <point x="113" y="669.471"/>
      <point x="113" y="440" type="curve" smooth="yes"/>
      <point x="113" y="210.783"/>
      <point x="217.555" y="36"/>
      <point x="452" y="36" type="curve" smooth="yes"/>
      <point x="548" y="36"/>
      <point x="645" y="64"/>
      <point x="706" y="137" type="curve" smooth="yes"/>
      <point x="768" y="210"/>
      <point x="786" y="270"/>
      <point x="790" y="366" type="curve"/>
      <point x="542" y="366" type="line"/>
      <point x="542" y="422" type="line"/>
      <point x="853" y="422" type="line"/>
      <point x="853" y="0" type="line"/>
      <point x="791" y="0" type="line"/>
      <point x="791" y="149" type="line"/>
      <point x="780" y="130"/>
      <point x="767" y="112"/>
      <point x="752" y="95" type="curve" smooth="yes"/>
      <point x="679" y="10"/>
      <point x="565" y="-20"/>
      <point x="452" y="-20" type="curve" smooth="yes"/>
      <point x="180.481" y="-20"/>
      <point x="51" y="172.655"/>
      <point x="51" y="440" type="curve" smooth="yes"/>
      <point x="51" y="707.04"/>
      <point x="204.146" y="900"/>
      <point x="476" y="900" type="curve" smooth="yes"/>
      <point x="612.631" y="900"/>
      <point x="742.553" y="850.474"/>
      <point x="811" y="744" type="curve"/>
    </contour>
  </outline>
</glyph>
<glyph name="I" format="1">
  <advance width="164"/>
  <unicode hex="0049"/>
  <outline>
    <contour>
      <point x="51" y="0" type="line"/>
      <point x="51" y="880" type="line"/>
      <point x="113" y="880" type="line"/>
      <point x="113" y="0" type="line"/>
    </contour>
  </outline>
</glyph>
<glyph name="M" format="1">
  <advance width="966"/>
  <unicode hex="004D"/>
  <outline>
    <contour>
      <point x="82" y="0" type="line"/>
      <point x="82" y="880" type="line"/>
      <point x="182" y="880" type="line" smooth="yes"/>
      <point x="183" y="880"/>
      <point x="485" y="186"/>
      <point x="485" y="186" type="curve"/>
      <point x="784" y="880" type="line"/>
      <point x="884" y="880" type="line"/>
      <point x="884" y="0" type="line"/>
      <point x="822" y="0" type="line"/>
      <point x="822" y="822" type="line"/>
      <point x="514" y="119" type="line"/>
      <point x="453" y="119" type="line"/>
      <point x="453" y="119"/>
      <point x="139" y="821"/>
      <point x="138" y="821" type="curve"/>
      <point x="138" y="821"/>
      <point x="139" y="0"/>
      <point x="138" y="0" type="curve" smooth="yes"/>
    </contour>
  </outline>
</glyph>
<glyph name="N" format="1">
  <advance width="813"/>
  <unicode hex="004E"/>
  <outline>
    <contour>
      <point x="82" y="0" type="line"/>
      <point x="82" y="880" type="line"/>
      <point x="182" y="880" type="line"/>
      <point x="675" y="39" type="line"/>
      <point x="675" y="880" type="line"/>
      <point x="731" y="880" type="line"/>
      <point x="731" y="0" type="line"/>
      <point x="631" y="0" type="line"/>
      <point x="138" y="841" type="line"/>
      <point x="138" y="0" type="line"/>
    </contour>
  </outline>
</glyph>
<glyph name="O" format="1">
  <advance width="904"/>
  <unicode hex="004F"/>
  <outline>
    <contour>
      <point x="452" y="844" type="curve" smooth="yes"/>
      <point x="356" y="844"/>
      <point x="259" y="816"/>
      <point x="198" y="743" type="curve" smooth="yes"/>
      <point x="128" y="660"/>
      <point x="113" y="548"/>
      <point x="113" y="440" type="curve" smooth="yes"/>
      <point x="113" y="332"/>
      <point x="128" y="220"/>
      <point x="198" y="137" type="curve" smooth="yes"/>
      <point x="259" y="64"/>
      <point x="356" y="36"/>
      <point x="452" y="36" type="curve" smooth="yes"/>
      <point x="548" y="36"/>
      <point x="645" y="64"/>
      <point x="706" y="137" type="curve" smooth="yes"/>
      <point x="776" y="220"/>
      <point x="791" y="332"/>
      <point x="791" y="440" type="curve" smooth="yes"/>
      <point x="791" y="548"/>
      <point x="776" y="660"/>
      <point x="706" y="743" type="curve" smooth="yes"/>
      <point x="645" y="816"/>
      <point x="548" y="844"/>
    </contour>
    <contour>
      <point x="452" y="900" type="curve" smooth="yes"/>
      <point x="565" y="900"/>
      <point x="679" y="870"/>
      <point x="752" y="785" type="curve"/>
      <point x="834" y="692"/>
      <point x="853" y="564"/>
      <point x="853" y="440" type="curve" smooth="yes"/>
      <point x="853" y="316"/>
      <point x="834" y="188"/>
      <point x="752" y="95" type="curve"/>
      <point x="679" y="10"/>
      <point x="565" y="-20"/>
      <point x="452" y="-20" type="curve" smooth="yes"/>
      <point x="339" y="-20"/>
      <point x="225" y="10"/>
      <point x="152" y="95" type="curve"/>
      <point x="70" y="188"/>
      <point x="51" y="316"/>
      <point x="51" y="440" type="curve" smooth="yes"/>
      <point x="51" y="564"/>
      <point x="70" y="692"/>
      <point x="152" y="785" type="curve"/>
      <point x="225" y="870"/>
      <point x="339" y="900"/>
    </contour>
  </outline>
</glyph>
<glyph name="Q" format="1">
  <advance width="904"/>
  <unicode hex="0051"/>
  <outline>
    <component base="O"/>
    <contour>
      <point x="839" y="-186" type="line"/>
      <point x="771" y="-186" type="line"/>
      <point x="402" y="246" type="line"/>
      <point x="469" y="246" type="line"/>
    </contour>
  </outline>
</glyph>
<glyph name="R" format="1">
  <advance width="715"/>
  <unicode hex="0052"/>
  <outline>
    <contour>
      <point x="350" y="430" type="curve"/>
      <point x="144" y="430" type="line"/>
      <point x="144" y="0" type="line"/>
      <point x="82" y="0" type="line"/>
      <point x="82" y="880" type="line"/>
      <point x="384" y="880" type="line" smooth="yes"/>
      <point x="541.015" y="880"/>
      <point x="663" y="818.073"/>
      <point x="663" y="655" type="curve" smooth="yes"/>
      <point x="663" y="454"/>
      <point x="503.5" y="430"/>
    </contour>
    <contour>
      <point x="144" y="824" type="line"/>
      <point x="144" y="486" type="line"/>
      <point x="381" y="486" type="line" smooth="yes"/>
      <point x="501.161" y="486"/>
      <point x="602" y="530.372"/>
      <point x="602" y="655" type="curve" smooth="yes"/>
      <point x="602" y="779.432"/>
      <point x="504.24" y="824"/>
      <point x="384" y="824" type="curve" smooth="yes"/>
    </contour>
    <contour>
      <point x="676" y="0" type="line"/>
      <point x="607" y="0" type="line"/>
      <point x="430" y="470" type="line"/>
      <point x="492" y="470" type="line"/>
    </contour>
  </outline>
</glyph>
<glyph name="S" format="1">
  <advance width="720"/>
  <unicode hex="0053"/>
  <outline>
    <contour>
      <point x="138" y="126" type="line"/>
      <point x="175" y="56"/>
      <point x="273" y="36"/>
      <point x="360" y="36" type="curve" smooth="yes"/>
      <point x="426" y="36"/>
      <point x="493" y="43"/>
      <point x="545" y="83" type="curve" smooth="yes"/>
      <point x="588" y="116"/>
      <point x="607" y="170"/>
      <point x="607" y="224" type="curve" smooth="yes"/>
      <point x="607" y="278"/>
      <point x="588" y="332"/>
      <point x="545" y="365" type="curve" smooth="yes"/>
      <point x="493" y="405"/>
      <point x="426" y="412"/>
      <point x="360" y="412" type="curve" smooth="yes"/>
      <point x="278" y="412"/>
      <point x="193" y="422"/>
      <point x="129" y="473" type="curve" smooth="yes"/>
      <point x="74" y="516"/>
      <point x="51" y="586"/>
      <point x="51" y="656" type="curve" smooth="yes"/>
      <point x="51" y="726"/>
      <point x="74" y="796"/>
      <point x="129" y="839" type="curve" smooth="yes"/>
      <point x="193" y="890"/>
      <point x="278" y="900"/>
      <point x="360" y="900" type="curve" smooth="yes"/>
      <point x="469" y="900"/>
      <point x="589" y="873"/>
      <point x="637" y="786" type="curve"/>
      <point x="583" y="754" type="line"/>
      <point x="543" y="823"/>
      <point x="450" y="844"/>
      <point x="360" y="844" type="curve" smooth="yes"/>
      <point x="295" y="844"/>
      <point x="227" y="837"/>
      <point x="175" y="797" type="curve" smooth="yes"/>
      <point x="132" y="764"/>
      <point x="113" y="710"/>
      <point x="113" y="656" type="curve" smooth="yes"/>
      <point x="113" y="602"/>
      <point x="132" y="548"/>
      <point x="175" y="515" type="curve" smooth="yes"/>
      <point x="227" y="475"/>
      <point x="295" y="468"/>
      <point x="360" y="468" type="curve" smooth="yes"/>
      <point x="442" y="468"/>
      <point x="527" y="458"/>
      <point x="592" y="407" type="curve" smooth="yes"/>
      <point x="646" y="364"/>
      <point x="669" y="294"/>
      <point x="669" y="224" type="curve" smooth="yes"/>
      <point x="669" y="154"/>
      <point x="646" y="84"/>
      <point x="592" y="41" type="curve" smooth="yes"/>
      <point x="527" y="-10"/>
      <point x="442" y="-20"/>
      <point x="360" y="-20" type="curve" smooth="yes"/>
      <point x="278" y="-20"/>
      <point x="193" y="-10"/>
      <point x="129" y="41" type="curve" smooth="yes"/>
      <point x="110" y="56"/>
      <point x="95" y="74"/>
      <point x="83" y="94" type="curve"/>
    </contour>
  </outline>
</glyph>
<glyph name="T" format="1">
  <advance width="720"/>
  <unicode hex="0054"/>
  <outline>
    <contour>
      <point x="54" y="824" type="line"/>
      <point x="54" y="880" type="line"/>
      <point x="666" y="880" type="line"/>
      <point x="666" y="824" type="line"/>
      <point x="391" y="824" type="line"/>
      <point x="391" y="0" type="line"/>
      <point x="329" y="0" type="line"/>
      <point x="329" y="824" type="line"/>
    </contour>
  </outline>
</glyph>
<glyph name="V" format="1">
  <advance width="757"/>
  <unicode hex="0056"/>
  <outline>
    <contour>
      <point x="51" y="880" type="curve"/>
      <point x="115" y="880" type="line"/>
      <point x="381" y="33" type="line" smooth="yes"/>
      <point x="382" y="33"/>
      <point x="648" y="880"/>
      <point x="648" y="880" type="curve"/>
      <point x="706" y="880" type="line"/>
      <point x="429" y="0" type="line"/>
      <point x="329" y="0" type="line" smooth="yes"/>
      <point x="328" y="0"/>
      <point x="51" y="880"/>
    </contour>
  </outline>
</glyph>
<glyph name="W" format="1">
  <advance width="1185"/>
  <unicode hex="0057"/>
  <outline>
    <contour>
      <point x="568" y="880" type="line"/>
      <point x="629" y="880" type="line"/>
      <point x="871" y="63" type="line"/>
      <point x="1083" y="880" type="line"/>
      <point x="1141" y="880" type="line"/>
      <point x="912" y="0" type="line"/>
      <point x="832" y="0" type="line"/>
    </contour>
    <contour>
      <point x="565" y="880" type="line"/>
      <point x="618" y="880" type="line"/>
      <point x="360" y="0" type="line"/>
      <point x="279" y="0" type="line"/>
      <point x="44" y="880" type="line"/>
      <point x="108" y="880" type="line"/>
      <point x="320" y="63" type="line"/>
    </contour>
  </outline>
</glyph>
<glyph name="Y" format="1">
  <advance width="757"/>
  <unicode hex="0059"/>
  <outline>
    <contour>
      <point x="51" y="880" type="line"/>
      <point x="122" y="880" type="line"/>
      <point x="382" y="509" type="line"/>
      <point x="642" y="880" type="line"/>
      <point x="706" y="880" type="line"/>
      <point x="409" y="458" type="line"/>
      <point x="409" y="0" type="line"/>
      <point x="348" y="0" type="line"/>
      <point x="348" y="458" type="line"/>
    </contour>
  </outline>
</glyph>
<glyph name="Z" format="1">
  <advance width="757"/>
  <unicode hex="005A"/>
  <outline>
    <contour>
      <point x="51" y="824" type="line"/>
      <point x="51" y="880" type="line"/>
      <point x="706" y="880" type="line"/>
      <point x="706" y="780" type="line"/>
      <point x="88" y="56" type="line"/>
      <point x="706" y="56" type="line"/>
      <point x="706" y="0" type="line"/>
      <point x="51" y="0" type="line"/>
      <point x="51" y="100" type="line"/>
      <point x="669" y="824" type="line"/>
    </contour>
  </outline>
</glyph>
<glyph name="a" format="1">
  <advance width="592"/>
  <unicode hex="0061"/>
  <outline>
    <contour>
      <point x="255" y="-20" type="curve" smooth="yes"/>
      <point x="363" y="-20"/>
      <point x="433" y="30"/>
      <point x="485" y="72" type="curve"/>
      <point x="437" y="76" type="line"/>
      <point x="467" y="0" type="line"/>
      <point x="589" y="0" type="line"/>
      <point x="589" y="433" type="line" smooth="yes"/>
      <point x="589" y="586"/>
      <point x="433" y="631"/>
      <point x="312" y="631" type="curve" smooth="yes"/>
      <point x="225" y="631"/>
      <point x="110" y="613"/>
      <point x="71" y="551" type="curve"/>
      <point x="127" y="447" type="line"/>
      <point x="146" y="470"/>
      <point x="202" y="508"/>
      <point x="295" y="508" type="curve" smooth="yes"/>
      <point x="379" y="508"/>
      <point x="437" y="483"/>
      <point x="437" y="397" type="curve" smooth="yes"/>
      <point x="437" y="339" type="line"/>
      <point x="495" y="368" type="line"/>
      <point x="287" y="368" type="line" smooth="yes"/>
      <point x="144" y="368"/>
      <point x="45" y="321"/>
      <point x="45" y="187" type="curve" smooth="yes"/>
      <point x="45" y="60"/>
      <point x="143" y="-20"/>
    </contour>
    <contour>
      <point x="290" y="93" type="curve" smooth="yes"/>
      <point x="225" y="93"/>
      <point x="193" y="137"/>
      <point x="193" y="187" type="curve" smooth="yes"/>
      <point x="193" y="238"/>
      <point x="211" y="261"/>
      <point x="317" y="261" type="curve" smooth="yes"/>
      <point x="490" y="261" type="line"/>
      <point x="437" y="296" type="line"/>
      <point x="437" y="99" type="line"/>
      <point x="488" y="178" type="line"/>
      <point x="404" y="116"/>
      <point x="338" y="93"/>
    </contour>
  </outline>
</glyph>
<glyph name="b" format="1">
  <advance width="686"/>
  <unicode hex="0062"/>
  <outline>
    <contour>
      <point x="114" y="74" type="line"/>
      <point x="163" y="10"/>
      <point x="265" y="-19"/>
      <point x="351" y="-19" type="curve" smooth="yes"/>
      <point x="550" y="-19"/>
      <point x="634" y="109"/>
      <point x="634" y="306" type="curve" smooth="yes"/>
      <point x="634" y="505"/>
      <point x="550" y="631"/>
      <point x="351" y="631" type="curve" smooth="yes"/>
      <point x="265" y="631"/>
      <point x="182" y="600"/>
      <point x="130" y="544" type="curve"/>
      <point x="130" y="481" type="line"/>
      <point x="169" y="528"/>
      <point x="237" y="578"/>
      <point x="351" y="578" type="curve" smooth="yes"/>
      <point x="513" y="578"/>
      <point x="573" y="459"/>
      <point x="573" y="306" type="curve" smooth="yes"/>
      <point x="573" y="153"/>
      <point x="512" y="34"/>
      <point x="351" y="34" type="curve" smooth="yes"/>
      <point x="235" y="34"/>
      <point x="153" y="82"/>
      <point x="114" y="129" type="curve"/>
    </contour>
    <contour>
      <point x="131" y="858" type="line"/>
      <point x="69" y="858" type="line"/>
      <point x="69" y="0" type="line"/>
      <point x="131" y="0" type="line"/>
    </contour>
  </outline>
</glyph>
<glyph name="c" format="1">
  <advance width="654"/>
  <unicode hex="0063"/>
  <outline>
    <contour>
      <point x="335" y="34" type="curve"/>
      <point x="335" y="-19" type="line"/>
      <point x="255" y="-19"/>
      <point x="174" y="3"/>
      <point x="123" y="62" type="curve" smooth="yes"/>
      <point x="65" y="130"/>
      <point x="52" y="220"/>
      <point x="52" y="307" type="curve" smooth="yes"/>
      <point x="52" y="393"/>
      <point x="65" y="483"/>
      <point x="123" y="551" type="curve" smooth="yes"/>
      <point x="174" y="610"/>
      <point x="255" y="631"/>
      <point x="335" y="631" type="curve" smooth="yes"/>
      <point x="416" y="631"/>
      <point x="497" y="610"/>
      <point x="548" y="551" type="curve" smooth="yes"/>
      <point x="563" y="533"/>
      <point x="575" y="515"/>
      <point x="584" y="494" type="curve"/>
      <point x="527" y="470" type="line"/>
      <point x="520" y="484"/>
      <point x="512" y="498"/>
      <point x="501" y="511" type="curve" smooth="yes"/>
      <point x="463" y="558"/>
      <point x="399" y="578"/>
      <point x="335" y="578" type="curve" smooth="yes"/>
      <point x="272" y="578"/>
      <point x="208" y="558"/>
      <point x="169" y="511" type="curve"/>
      <point x="123" y="453"/>
      <point x="114" y="379"/>
      <point x="114" y="307" type="curve" smooth="yes"/>
      <point x="114" y="234"/>
      <point x="123" y="160"/>
      <point x="169" y="102" type="curve"/>
      <point x="208" y="55"/>
      <point x="272" y="34"/>
    </contour>
    <contour>
      <point x="335" y="34" type="curve"/>
      <point x="335" y="-19" type="line"/>
      <point x="416" y="-19"/>
      <point x="497" y="3"/>
      <point x="548" y="62" type="curve" smooth="yes"/>
      <point x="563" y="80"/>
      <point x="575" y="99"/>
      <point x="584" y="119" type="curve"/>
      <point x="527" y="142" type="line"/>
      <point x="520" y="128"/>
      <point x="512" y="115"/>
      <point x="501" y="102" type="curve" smooth="yes"/>
      <point x="463" y="55"/>
      <point x="399" y="34"/>
    </contour>
  </outline>
</glyph>
<glyph name="d" format="1">
  <advance width="686"/>
  <unicode hex="0064"/>
  <outline>
    <contour>
      <point x="572" y="74" type="line"/>
      <point x="523" y="10"/>
      <point x="421" y="-19"/>
      <point x="335" y="-19" type="curve" smooth="yes"/>
      <point x="136" y="-19"/>
      <point x="52" y="109"/>
      <point x="52" y="306" type="curve" smooth="yes"/>
      <point x="52" y="505"/>
      <point x="136" y="631"/>
      <point x="335" y="631" type="curve" smooth="yes"/>
      <point x="421" y="631"/>
      <point x="504" y="600"/>
      <point x="556" y="544" type="curve"/>
      <point x="556" y="481" type="line"/>
      <point x="517" y="528"/>
      <point x="449" y="578"/>
      <point x="335" y="578" type="curve" smooth="yes"/>
      <point x="173" y="578"/>
      <point x="113" y="459"/>
      <point x="113" y="306" type="curve" smooth="yes"/>
      <point x="113" y="153"/>
      <point x="174" y="34"/>
      <point x="335" y="34" type="curve" smooth="yes"/>
      <point x="451" y="34"/>
      <point x="533" y="82"/>
      <point x="572" y="129" type="curve"/>
    </contour>
    <contour>
      <point x="555" y="858" type="line"/>
      <point x="617" y="858" type="line"/>
      <point x="617" y="0" type="line"/>
      <point x="555" y="0" type="line"/>
    </contour>
  </outline>
</glyph>
<glyph name="e" format="1">
  <advance width="713"/>
  <unicode hex="0065"/>
  <outline>
    <contour>
      <point x="367" y="100" type="curve"/>
      <point x="273" y="100"/>
      <point x="196" y="155"/>
      <point x="196" y="305" type="curve"/>
      <point x="138" y="255" type="line"/>
      <point x="661" y="255" type="line"/>
      <point x="661" y="297" type="line" smooth="yes"/>
      <point x="661" y="488"/>
      <point x="564" y="631"/>
      <point x="365" y="631" type="curve" smooth="yes"/>
      <point x="167" y="631"/>
      <point x="52" y="498"/>
      <point x="52" y="307" type="curve" smooth="yes"/>
      <point x="52" y="113"/>
      <point x="169" y="-19"/>
      <point x="361" y="-19" type="curve"/>
      <point x="491" y="-19"/>
      <point x="582" y="30"/>
      <point x="637" y="105" type="curve"/>
      <point x="545" y="177" type="line"/>
      <point x="521" y="146"/>
      <point x="461" y="100"/>
    </contour>
    <contour>
      <point x="368" y="517" type="curve" smooth="yes"/>
      <point x="467" y="517"/>
      <point x="530" y="453"/>
      <point x="530" y="312" type="curve"/>
      <point x="579" y="353" type="line"/>
      <point x="136" y="353" type="line"/>
      <point x="197" y="320" type="line"/>
      <point x="197" y="472"/>
      <point x="291" y="517"/>
    </contour>
  </outline>
</glyph>
<glyph name="i" format="1">
  <advance width="308"/>
  <unicode hex="0069"/>
  <outline>
    <contour>
      <point x="70" y="758" type="curve" smooth="yes"/>
      <point x="70" y="807"/>
      <point x="100" y="837"/>
      <point x="155" y="837" type="curve" smooth="yes"/>
      <point x="208" y="837"/>
      <point x="238" y="807"/>
      <point x="238" y="758" type="curve" smooth="yes"/>
      <point x="238" y="707"/>
      <point x="208" y="677"/>
      <point x="155" y="677" type="curve" smooth="yes"/>
      <point x="100" y="677"/>
      <point x="70" y="707"/>
    </contour>
    <contour>
      <point x="78" y="0" type="line"/>
      <point x="78" y="612" type="line"/>
      <point x="230" y="612" type="line"/>
      <point x="230" y="0" type="line"/>
    </contour>
  </outline>
</glyph>
<glyph name="j" format="1">
  <advance width="369"/>
  <unicode hex="006A"/>
  <outline>
    <contour>
      <point x="46" y="-244" type="line" smooth="yes"/>
      <point x="157" y="-244"/>
      <point x="230" y="-193"/>
      <point x="230" y="-20" type="curve"/>
      <point x="230" y="0" type="line"/>
      <point x="78" y="0" type="line"/>
      <point x="78" y="-30" type="line"/>
      <point x="78" y="-104"/>
      <point x="56" y="-131"/>
      <point x="-3" y="-131" type="curve" smooth="yes"/>
      <point x="-60" y="-131" type="line"/>
      <point x="-60" y="-244" type="line"/>
    </contour>
    <component base="i"/>
  </outline>
</glyph>
<glyph name="k" format="1">
  <advance width="715"/>
  <unicode hex="006B"/>
  <outline>
    <contour>
      <point x="159" y="294" type="line"/>
      <point x="230" y="277" type="line"/>
      <point x="230" y="828" type="line"/>
      <point x="78" y="828" type="line"/>
      <point x="78" y="0" type="line"/>
      <point x="230" y="0" type="line"/>
      <point x="230" y="258" type="line"/>
      <point x="159" y="179" type="line"/>
      <point x="355" y="338" type="line"/>
      <point x="284" y="360" type="line"/>
      <point x="525" y="0" type="line"/>
      <point x="704" y="0" type="line"/>
      <point x="409" y="405" type="line"/>
      <point x="351" y="290" type="line"/>
      <point x="715" y="612" type="line"/>
      <point x="521" y="612" type="line"/>
    </contour>
  </outline>
</glyph>
<glyph name="l" format="1">
  <advance width="308.0"/>
  <unicode hex="006C"/>
  <outline>
    <contour>
      <point x="78" y="0" type="line"/>
      <point x="78" y="828" type="line"/>
      <point x="230" y="828" type="line"/>
      <point x="230" y="0" type="line"/>
    </contour>
  </outline>
</glyph>
<glyph name="m" format="1">
  <advance width="1156"/>
  <unicode hex="006D"/>
  <outline>
    <contour>
      <point x="173" y="512" type="line"/>
      <point x="207" y="565"/>
      <point x="305" y="631"/>
      <point x="422" y="631" type="curve" smooth="yes"/>
      <point x="532" y="631"/>
      <point x="601" y="585"/>
      <point x="635" y="505" type="curve"/>
      <point x="599" y="514" type="line"/>
      <point x="674" y="589"/>
      <point x="753" y="630"/>
      <point x="846" y="630" type="curve" smooth="yes"/>
      <point x="970" y="630"/>
      <point x="1090" y="585"/>
      <point x="1090" y="349" type="curve"/>
      <point x="1090" y="0" type="line"/>
      <point x="938" y="0" type="line"/>
      <point x="938" y="334" type="line"/>
      <point x="938" y="500"/>
      <point x="868" y="506"/>
      <point x="817" y="506" type="curve" smooth="yes"/>
      <point x="762" y="506"/>
      <point x="684" y="465"/>
      <point x="626" y="402" type="curve"/>
      <point x="660" y="467" type="line"/>
      <point x="660" y="362" type="line"/>
      <point x="660" y="0" type="line"/>
      <point x="508" y="0" type="line"/>
      <point x="508" y="344" type="line" smooth="yes"/>
      <point x="508" y="461"/>
      <point x="474" y="506"/>
      <point x="388" y="506" type="curve" smooth="yes"/>
      <point x="297" y="506"/>
      <point x="210" y="423"/>
      <point x="185" y="386" type="curve"/>
      <point x="230" y="532" type="line"/>
      <point x="230" y="0" type="line"/>
      <point x="78" y="0" type="line"/>
      <point x="78" y="614" type="line"/>
      <point x="190" y="614" type="line"/>
      <point x="222" y="525" type="line"/>
    </contour>
  </outline>
</glyph>
<glyph name="n" format="1">
  <advance width="726"/>
  <unicode hex="006E"/>
  <outline>
    <contour>
      <point x="173" y="512" type="line"/>
      <point x="207" y="565"/>
      <point x="305" y="631"/>
      <point x="422" y="631" type="curve" smooth="yes"/>
      <point x="586" y="631"/>
      <point x="660" y="529"/>
      <point x="660" y="362" type="curve" smooth="yes"/>
      <point x="660" y="0" type="line"/>
      <point x="508" y="0" type="line"/>
      <point x="508" y="344" type="line" smooth="yes"/>
      <point x="508" y="461"/>
      <point x="474" y="506"/>
      <point x="388" y="506" type="curve" smooth="yes"/>
      <point x="297" y="506"/>
      <point x="210" y="423"/>
      <point x="185" y="386" type="curve"/>
      <point x="230" y="532" type="line"/>
      <point x="230" y="0" type="line"/>
      <point x="78" y="0" type="line"/>
      <point x="78" y="613.9" type="line"/>
      <point x="190" y="614" type="line"/>
      <point x="222" y="525" type="line"/>
    </contour>
  </outline>
</glyph>
<glyph name="o" format="1">
  <advance width="724"/>
  <unicode hex="006F"/>
  <outline>
    <contour>
      <point x="362" y="516" type="curve" smooth="yes"/>
      <point x="256" y="516"/>
      <point x="198" y="443"/>
      <point x="198" y="307" type="curve" smooth="yes"/>
      <point x="198" y="172"/>
      <point x="256" y="100"/>
      <point x="362" y="100" type="curve" smooth="yes"/>
      <point x="469" y="100"/>
      <point x="529" y="174"/>
      <point x="529" y="307" type="curve" smooth="yes"/>
      <point x="529" y="442"/>
      <point x="469" y="516"/>
    </contour>
    <contour>
      <point x="362" y="631" type="curve" smooth="yes"/>
      <point x="567" y="631"/>
      <point x="672" y="510"/>
      <point x="672" y="307" type="curve" smooth="yes"/>
      <point x="672" y="104"/>
      <point x="567" y="-19"/>
      <point x="362" y="-19" type="curve" smooth="yes"/>
      <point x="157" y="-19"/>
      <point x="52" y="106"/>
      <point x="52" y="307" type="curve" smooth="yes"/>
      <point x="52" y="507"/>
      <point x="158" y="631"/>
    </contour>
  </outline>
</glyph>
<glyph name="p" format="1">
  <advance width="756"/>
  <unicode hex="0070"/>
  <outline>
    <contour>
      <point x="158" y="91" type="line"/>
      <point x="220" y="17"/>
      <point x="294" y="-19"/>
      <point x="399" y="-19" type="curve" smooth="yes"/>
      <point x="598" y="-19"/>
      <point x="704" y="108"/>
      <point x="704" y="307" type="curve" smooth="yes"/>
      <point x="704" y="504"/>
      <point x="617" y="631"/>
      <point x="418" y="631" type="curve" smooth="yes"/>
      <point x="313" y="631"/>
      <point x="214" y="579"/>
      <point x="161" y="494" type="curve"/>
      <point x="230" y="534" type="line"/>
      <point x="206" y="612" type="line"/>
      <point x="78" y="612" type="line"/>
      <point x="78" y="-245" type="line"/>
      <point x="230" y="-245" type="line"/>
      <point x="230" y="69" type="line"/>
    </contour>
    <contour>
      <point x="158" y="209" type="curve"/>
      <point x="230" y="101" type="line"/>
      <point x="230" y="484" type="line"/>
      <point x="161" y="389" type="line"/>
      <point x="204" y="444"/>
      <point x="264" y="515"/>
      <point x="380" y="515" type="curve" smooth="yes"/>
      <point x="485" y="515"/>
      <point x="561" y="461"/>
      <point x="561" y="307" type="curve" smooth="yes"/>
      <point x="561" y="153"/>
      <point x="474" y="100"/>
      <point x="373" y="100" type="curve" smooth="yes"/>
      <point x="248" y="100"/>
      <point x="197" y="162"/>
    </contour>
  </outline>
</glyph>
<glyph name="s" format="1">
  <advance width="610"/>
  <unicode hex="0073"/>
  <outline>
    <contour>
      <point x="128" y="100" type="line"/>
      <point x="158" y="48"/>
      <point x="235" y="34"/>
      <point x="305" y="34" type="curve" smooth="yes"/>
      <point x="355" y="34"/>
      <point x="407" y="38"/>
      <point x="449" y="65" type="curve" smooth="yes"/>
      <point x="481" y="85"/>
      <point x="497" y="121"/>
      <point x="497" y="157" type="curve" smooth="yes"/>
      <point x="497" y="193"/>
      <point x="481" y="228"/>
      <point x="449" y="249" type="curve" smooth="yes"/>
      <point x="407" y="275"/>
      <point x="355" y="280"/>
      <point x="305" y="280" type="curve" smooth="yes"/>
      <point x="238" y="280"/>
      <point x="169" y="287"/>
      <point x="115" y="323" type="curve" smooth="yes"/>
      <point x="71" y="353"/>
      <point x="51" y="405"/>
      <point x="51" y="456" type="curve" smooth="yes"/>
      <point x="51" y="508"/>
      <point x="71" y="557"/>
      <point x="115" y="588" type="curve" smooth="yes"/>
      <point x="169" y="624"/>
      <point x="238" y="631"/>
      <point x="305" y="631" type="curve" smooth="yes"/>
      <point x="372" y="631"/>
      <point x="441" y="624"/>
      <point x="495" y="588" type="curve" smooth="yes"/>
      <point x="513" y="575"/>
      <point x="527" y="559"/>
      <point x="538" y="541" type="curve"/>
      <point x="482" y="513" type="line"/>
      <point x="452" y="566"/>
      <point x="376" y="578"/>
      <point x="305" y="578" type="curve" smooth="yes"/>
      <point x="255" y="578"/>
      <point x="203" y="575"/>
      <point x="161" y="549" type="curve" smooth="yes"/>
      <point x="129" y="528"/>
      <point x="113" y="492"/>
      <point x="113" y="456" type="curve" smooth="yes"/>
      <point x="113" y="421"/>
      <point x="129" y="385"/>
      <point x="161" y="364" type="curve" smooth="yes"/>
      <point x="203" y="338"/>
      <point x="255" y="333"/>
      <point x="305" y="333" type="curve" smooth="yes"/>
      <point x="372" y="333"/>
      <point x="441" y="326"/>
      <point x="495" y="289" type="curve" smooth="yes"/>
      <point x="539" y="259"/>
      <point x="559" y="208"/>
      <point x="559" y="157" type="curve" smooth="yes"/>
      <point x="559" y="105"/>
      <point x="539" y="55"/>
      <point x="495" y="25" type="curve" smooth="yes"/>
      <point x="441" y="-12"/>
      <point x="372" y="-19"/>
      <point x="305" y="-19" type="curve" smooth="yes"/>
      <point x="210" y="-19"/>
      <point x="113" y="3"/>
      <point x="72" y="73" type="curve"/>
    </contour>
  </outline>
</glyph>
<glyph name="u" format="1">
  <advance width="632"/>
  <unicode hex="0075"/>
  <outline>
    <contour>
      <point x="504" y="72" type="line"/>
      <point x="439" y="13"/>
      <point x="356" y="-19"/>
      <point x="279" y="-19" type="curve" smooth="yes"/>
      <point x="161" y="-19"/>
      <point x="58" y="54"/>
      <point x="58" y="207" type="curve" smooth="yes"/>
      <point x="58" y="612" type="line"/>
      <point x="120" y="612" type="line"/>
      <point x="120" y="207" type="line" smooth="yes"/>
      <point x="120" y="82"/>
      <point x="196" y="34"/>
      <point x="282" y="34" type="curve" smooth="yes"/>
      <point x="368" y="34"/>
      <point x="464" y="81"/>
      <point x="504" y="147" type="curve"/>
    </contour>
    <contour>
      <point x="501" y="69" type="line"/>
      <point x="501" y="207" type="line"/>
      <point x="501" y="612" type="line"/>
      <point x="563" y="612" type="line"/>
      <point x="563" y="0" type="line"/>
      <point x="501" y="0" type="line"/>
    </contour>
  </outline>
</glyph>
<glyph name="z" format="1">
  <advance width="610"/>
  <unicode hex="007A"/>
  <outline>
    <contour>
      <point x="69" y="560" type="line"/>
      <point x="69" y="612" type="line"/>
      <point x="576" y="612" type="line"/>
      <point x="585" y="563" type="line"/>
      <point x="115" y="53" type="line"/>
      <point x="559" y="53" type="line"/>
      <point x="559" y="0" type="line"/>
      <point x="51" y="0" type="line"/>
      <point x="42" y="63" type="line"/>
      <point x="42" y="63"/>
      <point x="508" y="560"/>
      <point x="507" y="560" type="curve" smooth="yes"/>
    </contour>
  </outline>
</glyph>
